PathFileType	4	(X/Y/Z)	C:/Users/opensim2020/Desktop/walking_exp_matlab/subject03_walking10_straight_02.trc																																																																																																																																					
DataRate	CameraRate	NumFrames	NumMarkers	Units	OrigDataRate	OrigDataStartFrame	OrigNumFrames																																																																																																																																	
100	100	4	45	mm	100	2031	347																																																																																																																																	
Frame#	Time	LFHD			RFHD			LBHD			RBHD			C7			T10			CLAV			STRN			RBAK			LSHO			LUPA			LELB			LFRM			LWRA			LWRB			LFIN			RSHO			RUPA			RELB			RFRM			RWRA			RWRB			RFIN			LASI			RASI			LPSI			RPSI			LTHI			LKNE			LTIB			LANK			LHEE			LTOE			RTHI			RKNE			RTIB			RANK			RHEE			RTOE			*39			*40			*41			*42			*43			*44		
		X1	Y1	Z1	X2	Y2	Z2	X3	Y3	Z3	X4	Y4	Z4	X5	Y5	Z5	X6	Y6	Z6	X7	Y7	Z7	X8	Y8	Z8	X9	Y9	Z9	X10	Y10	Z10	X11	Y11	Z11	X12	Y12	Z12	X13	Y13	Z13	X14	Y14	Z14	X15	Y15	Z15	X16	Y16	Z16	X17	Y17	Z17	X18	Y18	Z18	X19	Y19	Z19	X20	Y20	Z20	X21	Y21	Z21	X22	Y22	Z22	X23	Y23	Z23	X24	Y24	Z24	X25	Y25	Z25	X26	Y26	Z26	X27	Y27	Z27	X28	Y28	Z28	X29	Y29	Z29	X30	Y30	Z30	X31	Y31	Z31	X32	Y32	Z32	X33	Y33	Z33	X34	Y34	Z34	X35	Y35	Z35	X36	Y36	Z36	X37	Y37	Z37	X38	Y38	Z38	X39	Y39	Z39	X40	Y40	Z40	X41	Y41	Z41	X42	Y42	Z42	X43	Y43	Z43	X44	Y44	Z44	X45	Y45	Z45
																																																																																																																																								
217	2.16	426.55505	1600.89624	949.24304	411.26495	1609.48047	1080.78186	294.74347	1573.76233	939.06097	284.20303	1581.11267	1069.21387	241.81665	1410.84216	994.84564	208.77213	1094.96106	997.33057	360.34692	1332.37402	1008.8136	405.24115	1168.88013	1006.55463	177.39029	1232.31824	1085.12073	334.91092	1369.33264	850.69989	372.12793	1179.99219	776.91882	412.73004	1064.6123	765.62982	483.21664	956.34198	776.33905	540.52808	855.68982	816.84741	525.49719	850.90405	763.04742	572.60297	782.8399	779.32654	298.58261	1355.20496	1163.19312	297.94464	1131.46326	1234.11572	317.27148	1020.19049	1246.74036	340.54129	885.14459	1247.9082	377.73215	792.29675	1213.46973	344.26825	784.78723	1255.43591	371.25183	714.9256	1245.63733	382.75693	937.52063	886.08453	372.1012	933.40094	1124.37207	218.43127	955.45612	931.30133	212.66995	954.40509	1080.15881	329.05002	632.96735	856.01599	324.23242	455.84369	899.211	251.70221	270.21063	903.18091	204.32092	66.87154	951.27368	160.26431	34.25615	988.53888	353.12271	30.37674	970.35077	392.83218	642.45563	1172.67908	479.09991	482.93063	1140.53235	455.38483	295.10568	1147.31616	446.61777	77.46881	1107.03845	403.09363	42.58503	1054.99121	583.96783	45.84121	1086.87622	348.03397	1672.74146	990.2334	NaN	NaN	NaN	NaN	NaN	NaN	NaN	NaN	NaN	NaN	NaN	NaN	NaN	NaN	NaN
218	2.17	432.49646	1600.47437	949.97076	417.17133	1608.89038	1081.5564	300.85159	1572.89478	939.65485	290.15027	1580.14099	1069.90222	248.13123	1410.31287	995.28986	214.97299	1094.31665	997.6568	366.70151	1331.59277	1009.16827	411.38708	1168.0238	1006.5993	183.61844	1231.59204	1085.36902	341.31885	1368.85852	851.11853	378.3187	1179.62634	777.14581	418.95874	1064.323	765.61212	490.87378	957.06049	776.48285	550.05231	857.72162	817.43695	534.44751	852.11334	763.95947	582.77588	785.00977	780.31567	304.89584	1354.16565	1163.56287	303.68805	1130.43555	1234.13159	322.71362	1019.10144	1246.65625	345.64285	884.01154	1247.71289	382.49719	790.74567	1213.10803	348.99802	783.479	1254.95825	375.95609	713.71118	1245.35339	388.61679	936.74225	885.93066	378.59396	932.61853	1124.36194	224.48297	954.67242	931.62988	219.1368	953.51178	1080.46704	333.91461	632.24902	856.39038	327.87311	455.23196	899.15411	253.75005	270.01443	903.16687	204.63945	66.9587	951.24237	160.30492	34.54543	988.56372	353.18701	30.41559	970.35016	399.11777	641.61731	1172.59241	485.48141	482.27133	1139.75842	467.71503	294.09726	1146.25452	467.67926	76.30265	1105.96692	425.62302	40.76632	1053.30273	606.3269	47.29741	1085.7887	353.66934	1673.96936	988.8172	NaN	NaN	NaN	NaN	NaN	NaN	NaN	NaN	NaN	NaN	NaN	NaN	NaN	NaN	NaN
219	2.18	438.5394	1599.95557	950.71924	423.02502	1608.26721	1082.28235	306.9772	1571.96069	940.34314	296.21039	1579.07568	1070.5144	254.55072	1409.48132	995.72095	221.20624	1093.56189	998.02924	373.06863	1330.73328	1009.62604	417.60489	1167.15161	1006.68488	189.89655	1230.83655	1085.56372	347.65604	1368.29858	851.55963	384.42917	1179.07214	777.34045	425.17703	1063.90564	765.64844	498.39548	957.61755	776.80127	559.2149	859.47681	818.13806	543.02655	853.03864	764.95728	592.58929	786.96783	781.32208	311.20459	1353.21667	1164.03247	309.51178	1129.38086	1234.21692	328.28024	1017.94348	1246.57068	350.89908	882.78247	1247.5094	387.58539	789.46313	1212.91431	353.82288	782.17059	1254.54395	380.69095	712.42639	1245.02478	394.34512	935.95667	885.586	385.16431	931.76013	1124.36328	230.54567	953.8161	931.97565	225.59938	952.6524	1080.81934	338.72784	631.53784	856.91425	331.67694	454.51059	899.14587	255.79568	269.75757	903.20258	204.93016	67.09931	951.23553	160.33661	34.88045	988.58704	353.19272	30.39179	970.3302	405.56232	640.78802	1173.04846	491.58862	481.45029	1138.98486	479.61304	293.11447	1145.19409	488.3096	75.34797	1104.7467	447.38147	39.30061	1051.57373	627.83392	49.5215	1085.00964	359.37576	1674.03076	989.95386	NaN	NaN	NaN	NaN	NaN	NaN	NaN	NaN	NaN	NaN	NaN	NaN	NaN	NaN	NaN
220	2.19	444.56195	1599.43445	951.51501	429.0127	1607.59753	1083.06555	313.13809	1571.02625	941.03046	302.21686	1577.98889	1071.23865	261.06476	1408.76746	996.20099	227.34018	1092.84302	998.34198	379.48474	1329.86963	1010.03168	423.87018	1166.20068	1006.7774	196.22781	1230.01221	1085.8269	354.0354	1367.67468	852.05109	390.66461	1178.49573	777.51404	431.46127	1063.49304	765.83075	505.63748	957.97693	777.24866	567.96271	861.00806	818.99622	551.32446	853.76343	766.06708	601.97272	788.66473	782.44141	317.79349	1351.94885	1164.55762	315.50253	1128.26672	1234.2821	333.98056	1016.73315	1246.47083	356.186	881.48981	1247.31726	392.75998	788.17084	1212.6687	358.84296	780.87433	1254.18628	385.55798	711.04706	1244.6554	400.216	935.11456	885.46729	391.8302	930.89966	1124.40186	236.64491	952.83972	932.3299	232.12843	951.71167	1081.12793	343.41467	630.7807	856.99512	335.11603	453.70105	899.09937	257.93643	269.51001	903.18878	205.17542	67.29063	951.28308	159.8231	35.77322	988.62292	353.19885	30.33406	970.32697	411.87833	639.8631	1173.2854	497.43912	480.40915	1138.18604	491.1637	292.20142	1144.21069	507.70929	74.86507	1103.59021	468.48236	38.02857	1049.95374	648.40118	52.57816	1084.63965	365.30801	1670.35974	992.50671	NaN	NaN	NaN	NaN	NaN	NaN	NaN	NaN	NaN	NaN	NaN	NaN	NaN	NaN	NaN
